<svg width="34" height="34" viewBox="0 0 34 34" fill="none" xmlns="http://www.w3.org/2000/svg">
<path d="M29.1917 25.9933L27.9726 25.0934C27.7132 25.4447 27.618 25.8909 27.7114 26.3174L29.1917 25.9933ZM23.2286 30.8102L23.666 29.3594C23.316 29.2538 22.9397 29.2784 22.6064 29.4285L23.2286 30.8102ZM32.1353 32.1347V33.65C32.7482 33.65 33.3007 33.2808 33.5352 32.7146C33.7698 32.1483 33.6401 31.4966 33.2068 31.0632L32.1353 32.1347ZM30.6202 17.0339C30.6202 20.0534 29.6369 22.8388 27.9726 25.0934L30.4108 26.8933C32.4468 24.1352 33.6508 20.7229 33.6508 17.0339H30.6202ZM17.0345 3.44818C24.5376 3.44818 30.6202 9.5307 30.6202 17.0339H33.6508C33.6508 7.85693 26.2114 0.417548 17.0345 0.417548V3.44818ZM3.44879 17.0339C3.44879 9.5307 9.53131 3.44818 17.0345 3.44818V0.417548C7.85754 0.417548 0.418158 7.85693 0.418158 17.0339H3.44879ZM17.0345 30.6196C9.53131 30.6196 3.44879 24.537 3.44879 17.0339H0.418158C0.418158 26.2108 7.85754 33.6502 17.0345 33.6502V30.6196ZM22.6064 29.4285C20.9081 30.1932 19.0231 30.6196 17.0345 30.6196V33.6502C19.4605 33.6502 21.769 33.1293 23.8508 32.1918L22.6064 29.4285ZM22.7911 32.2609C25.1141 32.9614 27.4459 33.3059 29.1803 33.4771C30.0516 33.5631 30.7819 33.6063 31.2976 33.628C31.5556 33.6388 31.7605 33.6443 31.903 33.6471C31.9743 33.6485 32.0301 33.6493 32.0692 33.6496C32.0887 33.6498 32.1041 33.6499 32.1151 33.65C32.1207 33.65 32.1251 33.65 32.1285 33.65C32.1302 33.65 32.1316 33.65 32.1327 33.65C32.1333 33.65 32.1338 33.65 32.1342 33.65C32.1344 33.65 32.1347 33.65 32.1348 33.65C32.135 33.65 32.1353 33.65 32.1353 32.1347C32.1353 30.6194 32.1355 30.6194 32.1357 30.6194C32.1357 30.6194 32.1359 30.6194 32.1359 30.6194C32.1361 30.6194 32.1362 30.6194 32.1362 30.6194C32.1362 30.6194 32.136 30.6194 32.1355 30.6194C32.1345 30.6194 32.1324 30.6194 32.1293 30.6194C32.123 30.6193 32.1125 30.6193 32.0979 30.6191C32.0687 30.6189 32.0231 30.6183 31.9624 30.6171C31.8409 30.6147 31.6588 30.6099 31.425 30.6C30.957 30.5803 30.2842 30.5407 29.4779 30.4611C27.8571 30.3012 25.7355 29.9834 23.666 29.3594L22.7911 32.2609ZM32.1353 32.1347C33.2068 31.0632 33.2072 31.0636 33.2076 31.064C33.2077 31.0641 33.2081 31.0645 33.2083 31.0648C33.2088 31.0652 33.2092 31.0657 33.2097 31.0661C33.2105 31.067 33.2112 31.0677 33.2118 31.0683C33.213 31.0695 33.2138 31.0703 33.214 31.0705C33.2145 31.0711 33.2132 31.0697 33.21 31.0664C33.2037 31.0597 33.1903 31.0455 33.1706 31.0236C33.131 30.9798 33.0662 30.9055 32.9819 30.8008C32.8134 30.5914 32.5682 30.2613 32.2936 29.8107C31.7448 28.9103 31.0795 27.5305 30.6719 25.6692L27.7114 26.3174C28.2004 28.5504 29.0069 30.2413 29.7057 31.388C30.055 31.961 30.3776 32.3985 30.6209 32.7009C30.7426 32.8521 30.8447 32.9698 30.9206 33.0539C30.9585 33.096 30.99 33.1297 31.0141 33.1551C31.0262 33.1677 31.0364 33.1784 31.0447 33.1869C31.0489 33.1911 31.0526 33.1949 31.0557 33.1981C31.0573 33.1997 31.0588 33.2012 31.0601 33.2025C31.0608 33.2032 31.0615 33.2038 31.0621 33.2045C31.0624 33.2048 31.0628 33.2052 31.0629 33.2053C31.0634 33.2058 31.0638 33.2062 32.1353 32.1347Z" fill="#D91C5C"/>
<rect x="10.3231" y="8.64453" width="13.4231" height="3.35578" rx="1.51531" fill="#D91C5C"/>
<rect x="6.96666" y="15.356" width="20.1347" height="3.35578" rx="1.51531" fill="#D91C5C"/>
<rect x="10.3231" y="22.0674" width="13.4231" height="3.35578" rx="1.51531" fill="#D91C5C"/>
</svg>
