<svg width="30" height="30" viewBox="0 0 30 30" fill="none" xmlns="http://www.w3.org/2000/svg">
<path fill-rule="evenodd" clip-rule="evenodd" d="M1.66891 0.850342C1.21674 0.850342 0.850189 1.2169 0.850189 1.66906V8.62817C0.850189 9.08034 1.21674 9.44689 1.66891 9.44689H28.6866C29.1388 9.44689 29.5054 9.08034 29.5054 8.62817V1.66906C29.5054 1.21689 29.1388 0.850342 28.6866 0.850342H1.66891ZM28.0726 3.71586H16.6105V6.58138H28.0726V3.71586Z" fill="#D91C5C"/>
<path fill-rule="evenodd" clip-rule="evenodd" d="M1.66891 10.8797C1.21674 10.8797 0.850189 11.2462 0.850189 11.6984V18.6575C0.850189 19.1096 1.21674 19.4762 1.66891 19.4762H28.6866C29.1388 19.4762 29.5054 19.1096 29.5054 18.6575V11.6984C29.5054 11.2462 29.1388 10.8797 28.6866 10.8797H1.66891ZM28.0726 13.7452H16.6105V16.6107H28.0726V13.7452Z" fill="#D91C5C"/>
<path fill-rule="evenodd" clip-rule="evenodd" d="M0.850189 21.7277C0.850189 21.2755 1.21674 20.909 1.66891 20.909H28.6866C29.1388 20.909 29.5054 21.2755 29.5054 21.7277V28.6868C29.5054 29.139 29.1388 29.5055 28.6866 29.5055H1.66891C1.21674 29.5055 0.850189 29.139 0.850189 28.6868V21.7277ZM16.6105 23.7745H28.0726V26.64H16.6105V23.7745Z" fill="#D91C5C"/>
</svg>
