<svg width="30" height="30" viewBox="0 0 30 30" fill="none" xmlns="http://www.w3.org/2000/svg">
<path fill-rule="evenodd" clip-rule="evenodd" d="M17.5055 0.850098C17.011 0.850098 16.6101 1.25099 16.6101 1.74551V12.8495C16.6101 13.344 17.011 13.7449 17.5055 13.7449H28.6095C29.104 13.7449 29.5049 13.344 29.5049 12.8495V1.74551C29.5049 1.25099 29.104 0.850098 28.6095 0.850098H17.5055ZM0.850483 1.74616C0.850483 1.25163 1.25137 0.850744 1.7459 0.850744H12.8499C13.3444 0.850744 13.7453 1.25163 13.7453 1.74616V12.8502C13.7453 13.3447 13.3444 13.7456 12.8499 13.7456H1.74589C1.25137 13.7456 0.850483 13.3447 0.850483 12.8502V1.74616ZM0.84964 17.506C0.84964 17.0114 1.25053 16.6105 1.74505 16.6105H12.8491C13.3436 16.6105 13.7445 17.0114 13.7445 17.506V28.61C13.7445 29.1045 13.3436 29.5054 12.8491 29.5054H1.74505C1.25053 29.5054 0.84964 29.1045 0.84964 28.61V17.506ZM23.7739 22.3414H29.5049V23.7741H23.7739V29.5054H22.3412V23.7741H16.6101V22.3414H22.3412V16.6105H23.7739V22.3414Z" fill="#D91C5C"/>
</svg>
