<svg width="105" height="19" viewBox="0 0 105 19" fill="none" xmlns="http://www.w3.org/2000/svg">
<path d="M10.16 2.16V12.576C10.16 14.352 9.68 15.744 8.72 16.752C7.776 17.744 6.464 18.24 4.784 18.24C3.008 18.24 1.712 17.744 0.896 16.752C0.08 15.76 -0.176 14.432 0.128 12.768L1.904 12.408C1.728 13.768 1.848 14.784 2.264 15.456C2.696 16.112 3.512 16.44 4.712 16.44C6.072 16.44 7 16.072 7.496 15.336C7.992 14.584 8.24 13.504 8.24 12.096V2.16H10.16ZM21.4119 10.248C21.4119 9.352 21.1719 8.664 20.6919 8.184C20.2119 7.688 19.5319 7.44 18.6519 7.44C17.8199 7.44 17.1159 7.624 16.5399 7.992C15.9639 8.344 15.5399 8.92 15.2679 9.72L13.7079 8.76C14.0279 7.864 14.6199 7.144 15.4839 6.6C16.3479 6.04 17.4199 5.76 18.6999 5.76C19.5639 5.76 20.3479 5.912 21.0519 6.216C21.7559 6.504 22.3079 6.952 22.7079 7.56C23.1239 8.152 23.3319 8.92 23.3319 9.864V15.672C23.3319 16.248 23.6359 16.536 24.2439 16.536C24.5479 16.536 24.8439 16.496 25.1319 16.416L25.0359 17.928C24.7159 18.088 24.2999 18.168 23.7879 18.168C23.1959 18.168 22.6839 18.024 22.2519 17.736C21.8359 17.448 21.5639 17.008 21.4359 16.416C21.0199 17.04 20.4519 17.504 19.7319 17.808C19.0119 18.096 18.2999 18.24 17.5959 18.24C16.8919 18.24 16.2359 18.12 15.6279 17.88C15.0199 17.64 14.5319 17.28 14.1639 16.8C13.8119 16.304 13.6359 15.696 13.6359 14.976C13.6359 14.08 13.9319 13.344 14.5239 12.768C15.1319 12.176 15.9719 11.776 17.0439 11.568L21.4119 10.704V10.248ZM15.6039 14.88C15.6039 15.376 15.7959 15.784 16.1799 16.104C16.5799 16.408 17.1399 16.56 17.8599 16.56C18.4839 16.56 19.0599 16.456 19.5879 16.248C20.1319 16.024 20.5719 15.696 20.9079 15.264C21.2439 14.816 21.4119 14.248 21.4119 13.56V12.288L17.9319 13.008C17.1479 13.168 16.5639 13.392 16.1799 13.68C15.7959 13.968 15.6039 14.368 15.6039 14.88ZM27.9976 18V6H29.6776L29.7976 7.872C30.2296 7.136 30.7896 6.6 31.4776 6.264C32.1816 5.928 32.9016 5.76 33.6376 5.76C34.4856 5.76 35.2856 5.952 36.0376 6.336C36.7896 6.72 37.3656 7.312 37.7656 8.112C38.0216 7.568 38.3816 7.128 38.8456 6.792C39.3096 6.44 39.8136 6.184 40.3576 6.024C40.9176 5.848 41.4456 5.76 41.9416 5.76C42.7096 5.76 43.4376 5.92 44.1256 6.24C44.8296 6.56 45.4056 7.056 45.8536 7.728C46.3016 8.4 46.5256 9.264 46.5256 10.32V18H44.6056V10.512C44.6056 9.424 44.3336 8.64 43.7896 8.16C43.2456 7.68 42.5736 7.44 41.7736 7.44C41.1496 7.44 40.5656 7.592 40.0216 7.896C39.4776 8.2 39.0376 8.648 38.7016 9.24C38.3816 9.832 38.2216 10.56 38.2216 11.424V18H36.3016V10.512C36.3016 9.424 36.0296 8.64 35.4856 8.16C34.9416 7.68 34.2696 7.44 33.4696 7.44C32.9416 7.44 32.3976 7.584 31.8376 7.872C31.2936 8.144 30.8376 8.584 30.4696 9.192C30.1016 9.8 29.9176 10.6 29.9176 11.592V18H27.9976ZM56.7526 18.24C55.8406 18.24 55.0246 18.024 54.3046 17.592C53.5846 17.16 53.0406 16.592 52.6726 15.888L52.5526 18H50.8726V0.48H52.7926V7.872C53.1766 7.248 53.7126 6.744 54.4006 6.36C55.1046 5.96 55.8966 5.76 56.7766 5.76C57.7686 5.76 58.6806 6.008 59.5126 6.504C60.3446 7 61.0086 7.712 61.5046 8.64C62.0006 9.568 62.2486 10.688 62.2486 12C62.2486 13.296 61.9926 14.416 61.4806 15.36C60.9846 16.288 60.3206 17 59.4886 17.496C58.6566 17.992 57.7446 18.24 56.7526 18.24ZM56.5606 16.56C57.7446 16.56 58.6646 16.144 59.3206 15.312C59.9926 14.48 60.3286 13.376 60.3286 12C60.3286 10.624 60.0006 9.52 59.3446 8.688C58.6886 7.856 57.7686 7.44 56.5846 7.44C55.4646 7.44 54.5526 7.864 53.8486 8.712C53.1446 9.56 52.7926 10.672 52.7926 12.048C52.7926 13.424 53.1366 14.52 53.8246 15.336C54.5286 16.152 55.4406 16.56 56.5606 16.56ZM70.8875 5.76C72.0235 5.76 73.0235 6.008 73.8875 6.504C74.7675 7 75.4555 7.72 75.9515 8.664C76.4475 9.592 76.6955 10.704 76.6955 12C76.6955 13.296 76.4475 14.416 75.9515 15.36C75.4555 16.288 74.7675 17 73.8875 17.496C73.0235 17.992 72.0235 18.24 70.8875 18.24C69.7675 18.24 68.7675 17.992 67.8875 17.496C67.0075 17 66.3195 16.288 65.8235 15.36C65.3275 14.416 65.0795 13.296 65.0795 12C65.0795 10.704 65.3275 9.592 65.8235 8.664C66.3195 7.72 67.0075 7 67.8875 6.504C68.7675 6.008 69.7675 5.76 70.8875 5.76ZM70.8875 7.416C69.6715 7.416 68.7195 7.824 68.0315 8.64C67.3435 9.456 66.9995 10.576 66.9995 12C66.9995 13.424 67.3435 14.544 68.0315 15.36C68.7195 16.176 69.6715 16.584 70.8875 16.584C72.1035 16.584 73.0555 16.176 73.7435 15.36C74.4315 14.544 74.7755 13.424 74.7755 12C74.7755 10.576 74.4315 9.456 73.7435 8.64C73.0555 7.824 72.1035 7.416 70.8875 7.416ZM80.3101 18V6H81.9901L82.1101 7.872C82.5261 7.12 83.0941 6.584 83.8141 6.264C84.5341 5.928 85.3101 5.76 86.1421 5.76C87.0061 5.76 87.7901 5.928 88.4941 6.264C89.1981 6.584 89.7581 7.08 90.1741 7.752C90.6061 8.424 90.8221 9.28 90.8221 10.32V18H88.9021V10.992C88.9021 9.664 88.6141 8.744 88.0381 8.232C87.4781 7.704 86.7821 7.44 85.9501 7.44C85.3741 7.44 84.7981 7.576 84.2221 7.848C83.6461 8.12 83.1661 8.56 82.7821 9.168C82.4141 9.776 82.2301 10.592 82.2301 11.616V18H80.3101ZM94.3055 18V16.536L100.594 9.168L102.106 7.608L99.9695 7.656H94.3775V6H104.242V7.464L97.9535 14.832L96.4655 16.392L98.7935 16.344H104.434V18H94.3055Z" fill="#565656"/>
</svg>
