<svg width="338" height="111" viewBox="0 0 338 111" fill="none" xmlns="http://www.w3.org/2000/svg">
<path d="M8.70278 10.2003C8.0311 11.3998 7.77239 12.7869 7.96649 14.1479C8.1257 15.2568 8.5787 16.3028 9.27851 17.1776C9.97832 18.0523 10.8994 18.7239 11.9463 19.1227C13.2315 19.6108 14.6415 19.6629 15.9592 19.2709C17.2769 18.8789 18.4292 18.0646 19.2386 16.9533C20.048 15.8421 20.4696 14.4956 20.4386 13.1211C20.4075 11.7467 19.9254 10.4206 19.0666 9.34712C18.2078 8.27361 17.0199 7.51221 15.6858 7.18019C14.3517 6.84816 12.9455 6.96393 11.6837 7.50966C10.4219 8.05539 9.37447 9.0008 8.70278 10.2003Z" fill="#231F20"/>
<path d="M8.41732 61.1691C8.41732 64.1539 6.71596 66.0046 4.29822 66.0046H0V74.8696C0.895461 75.4964 3.31321 76.0337 5.73096 76.0337C13.3424 76.0337 19.7897 70.1237 19.7897 62.5123V25.5245H8.41732V61.1691Z" fill="#231F20"/>
<path d="M68.0181 52.0261V61.3389C67.0637 61.7856 66.027 62.0296 64.9735 62.0553C62.7659 62.0902 60.5875 61.5465 58.6552 60.4782C56.7228 59.4099 55.1039 57.8543 53.9594 55.9662C52.542 57.8841 50.6882 59.4367 48.5513 60.4956C46.4145 61.5545 44.0562 62.0892 41.6716 62.0553C31.7221 62.0553 23.9415 53.8171 23.9415 43.4297C23.9415 33.0424 31.7221 24.8041 41.6716 24.8041C45.44 24.7443 49.0898 26.121 51.8799 28.6546V25.5205H63.2523V48.5338C63.2523 51.5187 64.8641 52.0261 66.3864 52.0261H68.0181ZM52.4371 43.4297C52.43 41.9604 52.0456 40.5175 51.3207 39.2395C50.5958 37.9614 49.5547 36.891 48.2972 36.1309C47.0397 35.3709 45.6081 34.9466 44.1395 34.8988C42.671 34.851 41.2148 35.1814 39.9106 35.8581C38.9762 36.3104 38.1424 36.946 37.4586 37.7272C36.7749 38.5083 36.2553 39.419 35.9307 40.405C35.4948 41.5741 35.3208 42.8246 35.421 44.0682C35.5211 45.3119 35.8929 46.5184 36.5102 47.6026C37.1275 48.6869 37.9752 49.6225 38.9936 50.3434C40.0119 51.0643 41.176 51.5529 42.4038 51.7748C43.6316 51.9967 44.8931 51.9464 46.0994 51.6276C47.3056 51.3087 48.4272 50.729 49.3849 49.9294C50.3427 49.1298 51.1133 48.1297 51.6424 46.9998C52.1715 45.8699 52.4461 44.6376 52.447 43.3899L52.4371 43.4297Z" fill="#231F20"/>
<path d="M73.1584 61.339V25.5194H84.6203V29.5501C85.8435 28.0741 87.3754 26.8842 89.1082 26.0642C90.841 25.2442 92.7325 24.8141 94.6495 24.8042C99.5538 24.8042 103.762 27.5471 105.973 31.7566C106.471 31.0301 107.076 30.1926 107.632 29.5501C108.866 28.1243 110.387 26.8842 112.12 26.0642C113.853 25.2442 115.744 24.8141 117.661 24.8042C124.915 24.8042 130.646 30.8038 130.646 38.6739V61.329H119.184V40.5643C119.215 39.8303 119.096 39.0976 118.835 38.4109C118.574 37.7243 118.175 37.0979 117.664 36.5702C117.153 36.0424 116.54 35.6241 115.862 35.3409C115.184 35.0577 114.456 34.9155 113.721 34.9229C112.102 34.9591 110.561 35.6244 109.424 36.7779C108.309 37.9092 107.67 39.4228 107.634 41.0083V61.329H96.1717V40.5643C96.2028 39.8303 96.0842 39.0976 95.823 38.4109C95.5618 37.7243 95.1635 37.0979 94.6525 36.5702C94.1414 36.0424 93.5283 35.6241 92.8504 35.3409C92.1725 35.0577 91.4441 34.9155 90.7094 34.9229C89.0904 34.9591 87.5491 35.6244 86.4123 36.7779C85.2756 37.9314 84.6328 39.4822 84.6203 41.1016V61.339H73.1584Z" fill="#231F20"/>
<path fill-rule="evenodd" clip-rule="evenodd" d="M148.243 58.2508V61.3391H136.781V0H148.243V28.6504C151.032 26.1195 154.68 24.7445 158.446 24.8042C168.396 24.8042 176.176 33.0425 176.176 43.4298C176.176 53.8172 168.396 62.0554 158.446 62.0554C156.062 62.0893 153.703 61.5547 151.566 60.4958C150.359 59.8974 149.242 59.1413 148.243 58.2508ZM148.797 39.2396C148.072 40.5177 147.688 41.9605 147.681 43.4298L147.671 43.39C147.672 44.6377 147.946 45.87 148.475 46.9999C149.005 48.1299 149.775 49.1299 150.733 49.9295C151.691 50.7291 152.812 51.3088 154.018 51.6277C155.225 51.9466 156.486 51.9968 157.714 51.7749C158.942 51.553 160.106 51.0644 161.124 50.3435C162.143 49.6226 162.99 48.687 163.608 47.6028C164.225 46.5185 164.597 45.312 164.697 44.0684C164.797 42.8247 164.623 41.5742 164.187 40.4052C163.863 39.4191 163.343 38.5084 162.659 37.7273C161.975 36.9462 161.142 36.3106 160.207 35.8582C158.903 35.1815 157.447 34.8512 155.978 34.8989C154.51 34.9467 153.078 35.371 151.821 36.1311C150.563 36.8912 149.522 37.9615 148.797 39.2396Z" fill="#231F20"/>
<path d="M180.322 43.4298C180.322 32.6843 188.281 24.8042 200.29 24.8042C212.299 24.8042 220.189 32.6843 220.189 43.4298C220.189 54.1753 212.309 62.0554 200.29 62.0554C188.271 62.0554 180.322 54.1753 180.322 43.4298ZM208.797 43.4298C208.797 41.7473 208.298 40.1026 207.364 38.7036C206.429 37.3047 205.1 36.2143 203.546 35.5705C201.991 34.9266 200.281 34.7581 198.631 35.0864C196.981 35.4146 195.465 36.2248 194.275 37.4145C193.085 38.6042 192.275 40.12 191.947 41.7702C191.619 43.4203 191.787 45.1308 192.431 46.6852C193.075 48.2397 194.165 49.5683 195.564 50.503C196.963 51.4378 198.608 51.9367 200.29 51.9367C201.409 51.9487 202.52 51.7367 203.556 51.3131C204.591 50.8895 205.532 50.2628 206.322 49.4701C207.112 48.6773 207.735 47.7345 208.155 46.6971C208.575 45.6598 208.783 44.5488 208.767 43.4298H208.797Z" fill="#231F20"/>
<path d="M224.335 25.5165V61.339H235.797V41.1016C235.809 39.4822 236.452 37.9314 237.589 36.7779C238.726 35.6244 240.267 34.9591 241.886 34.9229C242.621 34.9155 243.349 35.0577 244.027 35.3409C244.705 35.6241 245.318 36.0424 245.829 36.5702C246.34 37.0979 246.738 37.7243 246.999 38.4109C247.261 39.0976 247.379 39.8303 247.348 40.5643V61.329H258.81V38.6739C258.81 30.8038 253.079 24.8042 245.826 24.8042C243.909 24.8141 242.017 25.2442 240.285 26.0642C238.552 26.8842 237.02 28.0741 235.797 29.5501V25.5165H224.335Z" fill="#231F20"/>
<path fill-rule="evenodd" clip-rule="evenodd" d="M287.349 34.966C286.435 33.9713 284.757 32.9559 281.723 33.0626C275.628 33.2768 272.509 39.0675 273.221 42.4428C273.789 45.1311 272.069 47.7703 269.381 48.3377C266.693 48.9051 264.054 47.1857 263.486 44.4975C261.555 35.3466 268.829 23.5601 281.373 23.1192C287.058 22.9194 291.631 24.9184 294.678 28.2377C297.618 31.4403 298.908 35.6369 298.56 39.4622C297.872 47.0346 292.034 51.0568 287.882 53.6777L287.691 53.798C291.752 54.8785 295.384 56.8672 298.465 59.5589C302.719 63.2746 305.786 68.201 307.558 73.6285C313.521 75.9651 319.397 79.1608 324.745 83.3047C325.486 80.5852 327.284 76.9821 328.933 75.6292C333.397 84.1577 336.286 96.6091 337.305 106.027C331.092 103.039 319.453 99.2639 311.642 98.1604C313.14 95.2573 316.194 92.4456 318.555 91.0962C315.629 88.8403 312.503 86.9072 309.28 85.2822C308.93 91.9931 305.811 97.8763 301.587 102.214C296.782 107.148 290.167 110.483 283.564 110.789C277.42 111.074 271.625 109.439 267.303 105.88C262.897 102.252 260.375 96.8931 260.531 90.637C260.682 84.5966 263.166 78.7897 267.758 74.6389C272.391 70.4515 278.862 68.2214 286.475 68.7751C289.079 68.9645 291.781 69.32 294.533 69.851C293.742 68.8191 292.868 67.8804 291.919 67.0521C287.88 63.5232 282.201 61.7112 274.915 63.5522C274.746 63.5949 274.576 63.6284 274.406 63.653C271.86 64.1606 269.563 64.0451 268.67 62.6472C267.568 60.9213 267.513 58.6426 270.042 55.2378C271.732 52.829 273.876 50.9939 275.925 49.519C277.516 48.3726 279.317 47.2687 280.895 46.301C281.494 45.9342 282.06 45.5868 282.571 45.2642C286.876 42.5468 288.445 40.8303 288.651 38.5614C288.748 37.4946 288.369 36.0775 287.349 34.966ZM299.14 81.2291C294.566 79.8389 290.013 79.0082 285.754 78.6984C280.554 78.3203 276.839 79.8424 274.43 82.0202C271.98 84.2347 270.565 87.406 270.478 90.8858C270.396 94.1498 271.636 96.5592 273.628 98.1996C275.704 99.9094 278.942 101.043 283.103 100.851C286.805 100.679 291.131 98.689 294.459 95.2721C297.737 91.9062 299.665 87.557 299.324 82.9566C299.281 82.375 299.219 81.7988 299.14 81.2291Z" fill="#DA1C5C"/>
</svg>
