<svg width="122" height="41" viewBox="0 0 122 41" fill="none" xmlns="http://www.w3.org/2000/svg">
<path d="M3.14771 3.68925C2.90477 4.1231 2.8112 4.62479 2.88141 5.11705C2.93899 5.51812 3.10283 5.89647 3.35595 6.21286C3.60906 6.52925 3.94223 6.77217 4.32087 6.91638C4.78571 7.09293 5.2957 7.11177 5.7723 6.96999C6.24889 6.82821 6.66567 6.53367 6.95842 6.13175C7.25118 5.72982 7.40367 5.2428 7.39243 4.74569C7.38119 4.24857 7.20682 3.76894 6.8962 3.38066C6.58557 2.99238 6.15592 2.71699 5.6734 2.5969C5.19088 2.47681 4.68226 2.51868 4.22588 2.71607C3.76949 2.91345 3.39066 3.2554 3.14771 3.68925Z" fill="#231F20"/>
<path d="M3.04447 22.1242C3.04447 23.2038 2.4291 23.8731 1.55463 23.8731H0V27.0795C0.32388 27.3062 1.19836 27.5006 2.07283 27.5006C4.82581 27.5006 7.15774 25.363 7.15774 22.61V9.23186H3.04447V22.1242Z" fill="#231F20"/>
<path d="M24.6015 18.8173V22.1857C24.2563 22.3472 23.8813 22.4355 23.5003 22.4448C22.7018 22.4574 21.9139 22.2607 21.215 21.8743C20.5161 21.488 19.9306 20.9253 19.5166 20.2424C19.0039 20.9361 18.3334 21.4977 17.5606 21.8807C16.7877 22.2637 15.9347 22.457 15.0722 22.4448C11.4736 22.4448 8.65941 19.4651 8.65941 15.7081C8.65941 11.9511 11.4736 8.97138 15.0722 8.97138C16.4352 8.94975 17.7553 9.44768 18.7645 10.3641V9.23048H22.8777V17.5542C22.8777 18.6338 23.4607 18.8173 24.0113 18.8173H24.6015ZM18.966 15.7081C18.9635 15.1766 18.8244 14.6548 18.5622 14.1925C18.3 13.7302 17.9235 13.3431 17.4686 13.0682C17.0138 12.7933 16.496 12.6398 15.9649 12.6225C15.4337 12.6053 14.907 12.7247 14.4353 12.9695C14.0973 13.1331 13.7957 13.363 13.5484 13.6455C13.3011 13.9281 13.1132 14.2574 12.9958 14.6141C12.8382 15.0369 12.7752 15.4892 12.8114 15.939C12.8476 16.3888 12.9821 16.8252 13.2054 17.2174C13.4287 17.6096 13.7353 17.948 14.1036 18.2087C14.4719 18.4694 14.893 18.6462 15.3371 18.7264C15.7811 18.8067 16.2374 18.7885 16.6737 18.6732C17.11 18.5578 17.5157 18.3482 17.8621 18.059C18.2085 17.7697 18.4872 17.408 18.6786 16.9993C18.8699 16.5907 18.9693 16.145 18.9696 15.6937L18.966 15.7081Z" fill="#231F20"/>
<path d="M26.4607 22.1855V9.22986H30.6063V10.6878C31.0488 10.1539 31.6029 9.7235 32.2296 9.42692C32.8563 9.13035 33.5405 8.97478 34.2338 8.97119C36.0076 8.97119 37.5298 9.96328 38.3296 11.4858C38.5095 11.2231 38.7285 10.9201 38.9295 10.6878C39.3758 10.172 39.9261 9.7235 40.5528 9.42692C41.1795 9.13035 41.8637 8.97478 42.557 8.97119C45.1804 8.97119 47.2533 11.1412 47.2533 13.9877V22.1819H43.1076V14.6715C43.1188 14.406 43.0759 14.141 42.9815 13.8926C42.887 13.6443 42.7429 13.4177 42.5581 13.2268C42.3733 13.0359 42.1515 12.8847 41.9063 12.7822C41.6611 12.6798 41.3976 12.6284 41.1319 12.631C40.5463 12.6441 39.9889 12.8848 39.5777 13.302C39.1745 13.7111 38.9431 14.2586 38.9301 14.8321V22.1819H34.7844V14.6715C34.7956 14.406 34.7527 14.141 34.6583 13.8926C34.5638 13.6443 34.4197 13.4177 34.2349 13.2268C34.0501 13.0359 33.8283 12.8847 33.5831 12.7822C33.3379 12.6798 33.0744 12.6284 32.8087 12.631C32.2231 12.6441 31.6657 12.8848 31.2545 13.302C30.8434 13.7192 30.6109 14.2801 30.6063 14.8658V22.1855H26.4607Z" fill="#231F20"/>
<path fill-rule="evenodd" clip-rule="evenodd" d="M53.618 21.0688V22.1858H49.4723V0H53.618V10.3626C54.6269 9.44719 55.9463 8.94983 57.3085 8.97146C60.9072 8.97146 63.7213 11.9512 63.7213 15.7082C63.7213 19.4652 60.9072 22.4449 57.3085 22.4449C56.446 22.4571 55.593 22.2637 54.8202 21.8807C54.3834 21.6643 53.9794 21.3909 53.618 21.0688ZM53.8185 14.1926C53.5563 14.6548 53.4173 15.1767 53.4147 15.7082L53.4111 15.6938C53.4115 16.145 53.5108 16.5907 53.7022 16.9994C53.8935 17.4081 54.1722 17.7698 54.5187 18.059C54.8651 18.3482 55.2707 18.5579 55.707 18.6732C56.1433 18.7886 56.5996 18.8068 57.0437 18.7265C57.4877 18.6462 57.9088 18.4695 58.2771 18.2088C58.6454 17.948 58.9521 17.6096 59.1753 17.2175C59.3986 16.8253 59.5331 16.3889 59.5693 15.9391C59.6055 15.4893 59.5426 15.037 59.3849 14.6142C59.2675 14.2575 59.0796 13.9281 58.8323 13.6456C58.585 13.3631 58.2834 13.1332 57.9455 12.9696C57.4737 12.7248 56.947 12.6053 56.4159 12.6226C55.8847 12.6399 55.3669 12.7934 54.9121 13.0683C54.4573 13.3432 54.0807 13.7303 53.8185 14.1926Z" fill="#231F20"/>
<path d="M65.2206 15.7079C65.2206 11.8213 68.0995 8.97119 72.4431 8.97119C76.7867 8.97119 79.6404 11.8213 79.6404 15.7079C79.6404 19.5945 76.7903 22.4446 72.4431 22.4446C68.096 22.4446 65.2206 19.5945 65.2206 15.7079ZM75.52 15.7079C75.52 15.0993 75.3395 14.5045 75.0014 13.9985C74.6633 13.4925 74.1828 13.0981 73.6206 12.8652C73.0584 12.6324 72.4397 12.5714 71.8429 12.6902C71.246 12.8089 70.6978 13.1019 70.2675 13.5322C69.8372 13.9625 69.5441 14.5108 69.4254 15.1076C69.3067 15.7045 69.3676 16.3231 69.6005 16.8854C69.8334 17.4476 70.2277 17.9281 70.7337 18.2662C71.2397 18.6043 71.8346 18.7847 72.4431 18.7847C72.8479 18.7891 73.2494 18.7124 73.6241 18.5592C73.9988 18.406 74.339 18.1793 74.6247 17.8926C74.9104 17.6059 75.1359 17.2649 75.2878 16.8897C75.4397 16.5145 75.515 16.1126 75.5092 15.7079H75.52Z" fill="#231F20"/>
<path d="M81.1398 9.22882V22.1855H85.2855V14.8658C85.29 14.2801 85.5225 13.7192 85.9336 13.302C86.3448 12.8848 86.9023 12.6441 87.4878 12.631C87.7536 12.6284 88.017 12.6798 88.2622 12.7822C88.5074 12.8847 88.7292 13.0359 88.914 13.2268C89.0989 13.4177 89.2429 13.6443 89.3374 13.8926C89.4318 14.141 89.4748 14.406 89.4635 14.6715V22.1819H93.6092V13.9877C93.6092 11.1412 91.5363 8.97119 88.9129 8.97119C88.2196 8.97478 87.5354 9.13035 86.9087 9.42692C86.282 9.7235 85.7279 10.1539 85.2855 10.6878V9.22882H81.1398Z" fill="#231F20"/>
<path fill-rule="evenodd" clip-rule="evenodd" d="M103.931 12.6468C103.601 12.287 102.994 11.9198 101.897 11.9583C99.692 12.0358 98.5639 14.1303 98.8215 15.3511C99.0268 16.3234 98.4049 17.278 97.4326 17.4832C96.4602 17.6884 95.5057 17.0665 95.3004 16.0942C94.6019 12.7844 97.2331 8.52137 101.77 8.36189C103.826 8.28962 105.48 9.01265 106.582 10.2132C107.646 11.3716 108.112 12.8894 107.986 14.273C107.737 17.0119 105.626 18.4667 104.124 19.4146L104.055 19.4581C105.524 19.8489 106.838 20.5682 107.952 21.5418C109.49 22.8857 110.6 24.6675 111.241 26.6306C113.398 27.4757 115.523 28.6316 117.457 30.1304C117.725 29.1468 118.375 27.8436 118.972 27.3543C120.586 30.439 121.631 34.9425 122 38.3489C119.753 37.268 115.543 35.9027 112.718 35.5036C113.26 34.4536 114.364 33.4366 115.218 32.9485C114.16 32.1326 113.029 31.4334 111.864 30.8456C111.737 33.2729 110.609 35.4008 109.081 36.9696C107.343 38.7543 104.951 39.9607 102.562 40.0714C100.34 40.1744 98.2441 39.5829 96.681 38.2957C95.0874 36.9834 94.1751 35.0452 94.2317 32.7824C94.2863 30.5977 95.1847 28.4974 96.8456 26.9961C98.5213 25.4816 100.862 24.6749 103.615 24.8752C104.557 24.9437 105.534 25.0723 106.53 25.2644C106.244 24.8911 105.927 24.5516 105.584 24.252C104.123 22.9757 102.069 22.3203 99.4341 22.9861C99.3729 23.0016 99.3115 23.0137 99.25 23.0226C98.3291 23.2062 97.4982 23.1644 97.1754 22.6588C96.7769 22.0345 96.7568 21.2104 97.6716 19.9789C98.2828 19.1077 99.0585 18.4439 99.7993 17.9104C100.375 17.4958 101.026 17.0965 101.597 16.7465C101.814 16.6139 102.019 16.4882 102.203 16.3715C103.76 15.3887 104.328 14.7678 104.402 13.9472C104.438 13.5613 104.3 13.0488 103.931 12.6468ZM108.196 29.3797C106.542 28.8769 104.895 28.5764 103.354 28.4644C101.474 28.3276 100.13 28.8781 99.2587 29.6658C98.3725 30.4668 97.8607 31.6138 97.8292 32.8724C97.7997 34.053 98.2482 34.9244 98.9686 35.5178C99.7196 36.1362 100.891 36.5463 102.396 36.4766C103.735 36.4145 105.299 35.6948 106.503 34.4589C107.689 33.2415 108.386 31.6684 108.263 30.0045C108.247 29.7942 108.225 29.5858 108.196 29.3797Z" fill="#DA1C5C"/>
</svg>
